<?xml version="1.0" standalone="no"?><!DOCTYPE svg PUBLIC "-//W3C//DTD SVG 1.1//EN" "http://www.w3.org/Graphics/SVG/1.1/DTD/svg11.dtd"><svg t="1515730552843" class="icon" style="" viewBox="0 0 1427 1024" version="1.1" xmlns="http://www.w3.org/2000/svg" p-id="1332" xmlns:xlink="http://www.w3.org/1999/xlink" width="44.59375" height="32"><defs><style type="text/css"></style></defs><path d="M1313.458 114.344h-94.802v-26.882l-32.221-12.652c-6.459-2.527-159.775-62.086-293.884-62.086-62.789 0-113.020 12.938-150.105 38.566-37.085-25.628-87.278-38.566-150.086-38.566-134.108 0-287.424 59.559-293.884 62.086l-32.202 12.652v26.882h-92.559c-21.027 0-38.073 17.046-38.073 38.073v701.206c0 21.031 17.041 38.073 38.073 38.073h1139.742c21.027 0 38.073-17.046 38.073-38.073v-701.206c0-21.027-17.046-38.073-38.073-38.073zM1167.894 122.057v556.496c-78.615-26.921-287.405-87.924-400.065-22.152v-560.505c31.765-23.729 76.487-32.43 124.724-32.43 126.053 0 275.341 58.591 275.341 58.591zM1110.406 713.245h-334.635c65.297-61.934 226.973-32.164 334.635 0zM592.361 63.467c48.218 0 92.959 8.721 124.704 32.43v560.505c-112.66-65.735-321.412-4.769-400.045 22.152v-556.496s149.288-58.591 275.341-58.591zM709.124 713.245h-334.692c107.625-32.202 269.376-62.029 334.692 0zM1275.386 815.55h-1063.597v-625.080h54.487v573.518h952.382v-573.518h56.729v625.080z" fill="#ff7a20" p-id="1333"></path></svg>